<svg xmlns="http://www.w3.org/2000/svg" viewBox="0 0 380 220" width="380" height="220" role="img" aria-label="Body measurement points">
  <ellipse cx="190" cy="45" rx="28" ry="35" fill="#f5e8d0" stroke="#b35c00" stroke-width="1.5"/>
  <path d="M162,75 Q140,90 135,130 Q132,165 140,200 L240,200 Q248,165 245,130 Q240,90 218,75 Q204,68 190,68 Q176,68 162,75Z" fill="#f5e8d0" stroke="#b35c00" stroke-width="1.5"/>
  <line x1="140" y1="100" x2="240" y2="100" stroke="#016b6f" stroke-width="1.5" stroke-dasharray="5,3"/>
  <text x="245" y="104" font-size="9" fill="#016b6f" font-family="Noto Sans Devanagari">छाती</text>
  <text x="245" y="115" font-size="8" fill="#016b6f" font-family="Work Sans">Bust/Chest</text>
  <line x1="145" y1="130" x2="235" y2="130" stroke="#b35c00" stroke-width="1.5" stroke-dasharray="5,3"/>
  <text x="238" y="134" font-size="9" fill="#b35c00" font-family="Noto Sans Devanagari">कमर</text>
  <text x="238" y="145" font-size="8" fill="#b35c00" font-family="Work Sans">Waist</text>
  <line x1="142" y1="160" x2="238" y2="160" stroke="#a0a" stroke-width="1.5" stroke-dasharray="5,3"/>
  <text x="241" y="164" font-size="9" fill="#a0a" font-family="Noto Sans Devanagari">कूल्हा</text>
  <text x="241" y="175" font-size="8" fill="#a0a" font-family="Work Sans">Hip</text>
  <line x1="162" y1="78" x2="218" y2="78" stroke="#c89000" stroke-width="1.5" stroke-dasharray="5,3"/>
  <text x="60" y="82" font-size="9" fill="#c89000" font-family="Noto Sans Devanagari">कंधा</text>
  <text x="60" y="93" font-size="8" fill="#c89000" font-family="Work Sans">Shoulder</text>
</svg>
