<svg xmlns="http://www.w3.org/2000/svg" viewBox="0 0 420 210" width="420" height="210" role="img" aria-label="Warp weft weave diagram">
  <defs>
    <marker id="arr" markerWidth="8" markerHeight="8" refX="6" refY="3" orient="auto">
      <path d="M0,0 L0,6 L8,3 z" fill="#016b6f"/>
    </marker>
  </defs>
  <rect x="60" y="20" width="300" height="150" fill="#f5f0e8" stroke="#b35c00" stroke-width="2"/>
  <g stroke="#8b6914" stroke-width="1.5" opacity="0.7">
    <line x1="80" y1="20" x2="80" y2="170"/><line x1="100" y1="20" x2="100" y2="170"/>
    <line x1="120" y1="20" x2="120" y2="170"/><line x1="140" y1="20" x2="140" y2="170"/>
    <line x1="160" y1="20" x2="160" y2="170"/><line x1="180" y1="20" x2="180" y2="170"/>
    <line x1="200" y1="20" x2="200" y2="170"/><line x1="220" y1="20" x2="220" y2="170"/>
    <line x1="240" y1="20" x2="240" y2="170"/><line x1="260" y1="20" x2="260" y2="170"/>
    <line x1="280" y1="20" x2="280" y2="170"/><line x1="300" y1="20" x2="300" y2="170"/>
    <line x1="320" y1="20" x2="320" y2="170"/><line x1="340" y1="20" x2="340" y2="170"/>
  </g>
  <g stroke="#c0781e" stroke-width="1.5" opacity="0.6">
    <line x1="60" y1="40" x2="360" y2="40"/><line x1="60" y1="60" x2="360" y2="60"/>
    <line x1="60" y1="80" x2="360" y2="80"/><line x1="60" y1="100" x2="360" y2="100"/>
    <line x1="60" y1="120" x2="360" y2="120"/><line x1="60" y1="140" x2="360" y2="140"/>
    <line x1="60" y1="160" x2="360" y2="160"/>
  </g>
  <rect x="60" y="20" width="8" height="150" fill="#b35c00" opacity="0.4"/>
  <rect x="352" y="20" width="8" height="150" fill="#b35c00" opacity="0.4"/>
  <line x1="210" y1="185" x2="210" y2="5" stroke="#016b6f" stroke-width="2" marker-end="url(#arr)"/>
  <text x="218" y="12" font-size="9" fill="#016b6f" font-family="Work Sans">ताना/Warp</text>
  <line x1="365" y1="95" x2="55" y2="95" stroke="#b35c00" stroke-width="2" marker-end="url(#arr)"/>
  <text x="320" y="90" font-size="9" fill="#b35c00" font-family="Work Sans">बाना/Weft</text>
  <line x1="60" y1="170" x2="360" y2="20" stroke="#a0a" stroke-width="1.5" stroke-dasharray="6,4" opacity="0.5"/>
  <text x="280" y="18" font-size="9" fill="#a0a" font-family="Work Sans">बायस/Bias</text>
  <text x="64" y="205" font-size="9" fill="#b35c00" font-family="Noto Sans Devanagari" text-anchor="middle">सेल्वेज</text>
</svg>
